<svg width="24" height="24" viewBox="0 0 24 24" fill="none" xmlns="http://www.w3.org/2000/svg">
<g clip-path="url(#clip0_637_538)">
<path fill-rule="evenodd" clip-rule="evenodd" d="M13.5 3C13.904 3.00133 14.3007 3.02933 14.69 3.084C14.3796 3.45803 14.1648 3.90187 14.064 4.37733C13.9631 4.85279 13.9793 5.34562 14.1112 5.81343C14.243 6.28124 14.4865 6.71002 14.8208 7.06286C15.155 7.41571 15.57 7.68206 16.03 7.839L16.408 7.968C16.5528 8.01735 16.6844 8.09926 16.7926 8.20745C16.9007 8.31563 16.9827 8.44719 17.032 8.592L17.162 8.97C17.3192 9.42957 17.5856 9.84411 17.9383 10.178C18.2911 10.5119 18.7196 10.7551 19.1871 10.8868C19.6546 11.0185 20.1471 11.0348 20.6223 10.9341C21.0974 10.8335 21.541 10.6189 21.915 10.309C21.971 10.6983 21.9993 11.0953 22 11.5C22 12.6162 21.7801 13.7215 21.353 14.7528C20.9258 15.7841 20.2997 16.7211 19.5104 17.5104C18.7211 18.2997 17.7841 18.9258 16.7528 19.353C15.7215 19.7801 14.6162 20 13.5 20H13V21C13 21.2652 12.8946 21.5196 12.7071 21.7071C12.5196 21.8946 12.2652 22 12 22C6.984 22 2 18.087 2 11.5C2 9.24566 2.89553 7.08365 4.48959 5.48959C6.08365 3.89553 8.24566 3 10.5 3H13.5ZM8.5 10C8.10218 10 7.72064 10.158 7.43934 10.4393C7.15804 10.7206 7 11.1022 7 11.5C7 11.8978 7.15804 12.2794 7.43934 12.5607C7.72064 12.842 8.10218 13 8.5 13C8.89782 13 9.27936 12.842 9.56066 12.5607C9.84196 12.2794 10 11.8978 10 11.5C10 11.1022 9.84196 10.7206 9.56066 10.4393C9.27936 10.158 8.89782 10 8.5 10ZM15.5 10C15.1022 10 14.7206 10.158 14.4393 10.4393C14.158 10.7206 14 11.1022 14 11.5C14 11.8978 14.158 12.2794 14.4393 12.5607C14.7206 12.842 15.1022 13 15.5 13C15.8978 13 16.2794 12.842 16.5607 12.5607C16.842 12.2794 17 11.8978 17 11.5C17 11.1022 16.842 10.7206 16.5607 10.4393C16.2794 10.158 15.8978 10 15.5 10ZM20 1C20.2086 1.00008 20.4119 1.06539 20.5816 1.18679C20.7512 1.30818 20.8786 1.47959 20.946 1.677L21.076 2.055C21.376 2.934 22.066 3.625 22.946 3.925L23.323 4.054C23.5202 4.12157 23.6913 4.24908 23.8125 4.41869C23.9337 4.58831 23.9988 4.79155 23.9988 5C23.9988 5.20845 23.9337 5.41169 23.8125 5.58131C23.6913 5.75092 23.5202 5.87843 23.323 5.946L22.945 6.076C22.066 6.376 21.375 7.066 21.075 7.946L20.946 8.323C20.8784 8.5202 20.7509 8.69134 20.5813 8.81252C20.4117 8.93369 20.2085 8.99883 20 8.99883C19.7915 8.99883 19.5883 8.93369 19.4187 8.81252C19.2491 8.69134 19.1216 8.5202 19.054 8.323L18.924 7.945C18.7759 7.51114 18.5303 7.11699 18.2062 6.79283C17.882 6.46866 17.4879 6.2231 17.054 6.075L16.677 5.946C16.4798 5.87843 16.3087 5.75092 16.1875 5.58131C16.0663 5.41169 16.0012 5.20845 16.0012 5C16.0012 4.79155 16.0663 4.58831 16.1875 4.41869C16.3087 4.24908 16.4798 4.12157 16.677 4.054L17.055 3.924C17.934 3.624 18.625 2.934 18.925 2.054L19.054 1.677C19.1214 1.47959 19.2488 1.30818 19.4184 1.18679C19.5881 1.06539 19.7914 1.00008 20 1Z" fill="white"/>
</g>
<defs>
<clipPath id="clip0_637_538">
<rect width="24" height="24" fill="white"/>
</clipPath>
</defs>
</svg>
