<svg width="24" height="24" viewBox="0 0 24 24" fill="none" xmlns="http://www.w3.org/2000/svg">
<path d="M14.75 5.75H16.202C16.5767 5.75 16.926 5.75067 17.25 5.752V10.619L16.545 10.225L16.536 10.22C16.4839 10.1903 16.4305 10.1629 16.376 10.138C16.258 10.0839 16.1298 10.0559 16 10.056C15.8699 10.0558 15.7413 10.0837 15.623 10.138C15.561 10.165 15.498 10.201 15.463 10.22L15.455 10.225L14.75 10.619V5.75Z" fill="white"/>
<path d="M22 11.548V13.75C22 17.521 22 19.407 20.828 20.578C19.656 21.749 17.771 21.75 14 21.75H10C6.229 21.75 4.343 21.75 3.172 20.578C2.001 19.406 2 17.521 2 13.75V6.69998C2 5.81698 2 5.37598 2.07 5.00798C2.21922 4.21782 2.60314 3.49098 3.17165 2.92228C3.74017 2.35359 4.46689 1.96945 5.257 1.81998C5.625 1.75098 6.067 1.75098 6.949 1.75098C7.335 1.75098 7.529 1.75098 7.715 1.76798C8.51605 1.84321 9.27579 2.15826 9.895 2.67198C10.039 2.79098 10.175 2.92698 10.449 3.20098L10.999 3.75098C11.815 4.56698 12.223 4.97498 12.711 5.24598C12.8843 5.34264 13.0637 5.42598 13.249 5.49598V11.204C13.249 11.339 13.249 11.506 13.267 11.647C13.287 11.792 13.35 12.124 13.667 12.344C14.015 12.584 14.37 12.494 14.532 12.434C14.667 12.384 14.814 12.302 14.918 12.244L14.944 12.229L15.999 11.639L17.054 12.229L17.08 12.244C17.184 12.302 17.33 12.384 17.466 12.434C17.628 12.494 17.983 12.584 18.33 12.344C18.648 12.124 18.711 11.792 18.73 11.647C18.75 11.507 18.75 11.339 18.749 11.204V5.79698C19.798 5.86898 20.486 6.05298 21.005 6.51898C21.0843 6.58964 21.159 6.66464 21.229 6.74398C21.999 7.59898 22 8.91598 22 11.548Z" fill="white"/>
</svg>
