<svg width="22" height="22" viewBox="0 0 22 22" fill="none" xmlns="http://www.w3.org/2000/svg">
<path d="M9.84492 2.24039C10.1715 1.97542 10.5793 1.83081 10.9999 1.83081C11.4205 1.83081 11.8283 1.97542 12.1549 2.24039L19.1473 7.90539C19.4652 8.16286 19.7217 8.48804 19.898 8.85721C20.0744 9.22639 20.1661 9.63026 20.1666 10.0394V18.3334C20.1666 18.8196 19.9734 19.2859 19.6296 19.6297C19.2858 19.9736 18.8195 20.1667 18.3333 20.1667H15.5833C15.097 20.1667 14.6307 19.9736 14.2869 19.6297C13.9431 19.2859 13.7499 18.8196 13.7499 18.3334V13.7501C13.7499 13.5069 13.6533 13.2738 13.4814 13.1019C13.3095 12.93 13.0764 12.8334 12.8333 12.8334H9.16659C8.92347 12.8334 8.69031 12.93 8.5184 13.1019C8.3465 13.2738 8.24992 13.5069 8.24992 13.7501V18.3334C8.24992 18.8196 8.05676 19.2859 7.71295 19.6297C7.36913 19.9736 6.90282 20.1667 6.41659 20.1667H3.66659C3.18036 20.1667 2.71404 19.9736 2.37022 19.6297C2.02641 19.2859 1.83325 18.8196 1.83325 18.3334V10.0412C1.83317 9.63147 1.92465 9.22689 2.10102 8.85704C2.27738 8.48719 2.53416 8.16142 2.85259 7.90355L9.84492 2.24039Z" fill="black"/>
</svg>
