<svg width="24" height="24" viewBox="0 0 24 24" fill="none" xmlns="http://www.w3.org/2000/svg">
<path d="M12 13.5C17.775 13.5 22.5 17.25 22.5 20.25C22.5 20.8467 22.2629 21.419 21.841 21.841C21.419 22.2629 20.8467 22.5 20.25 22.5H3.75C3.15326 22.5 2.58097 22.2629 2.15901 21.841C1.73705 21.419 1.5 20.8467 1.5 20.25C1.5 17.25 6.225 13.5 12 13.5ZM12 1.5C13.3924 1.5 14.7277 2.05312 15.7123 3.03769C16.6969 4.02226 17.25 5.35761 17.25 6.75C17.25 8.14239 16.6969 9.47774 15.7123 10.4623C14.7277 11.4469 13.3924 12 12 12C10.6076 12 9.27226 11.4469 8.28769 10.4623C7.30312 9.47774 6.75 8.14239 6.75 6.75C6.75 5.35761 7.30312 4.02226 8.28769 3.03769C9.27226 2.05312 10.6076 1.5 12 1.5Z" fill="white"/>
</svg>
